<svg width="130" height="40" viewBox="0 0 130 40" fill="none" xmlns="http://www.w3.org/2000/svg">
<path d="M42.8584 13.235C42.8985 13.235 42.9385 13.2409 42.9786 13.2409H43.4266C43.4326 13.2409 43.4461 13.2395 43.4461 13.2395H44.7018C44.9517 13.2395 45.2015 13.2221 45.4313 13.2585C45.5239 13.2711 45.6122 13.2941 45.6997 13.3342C45.7638 13.3623 45.8253 13.398 45.8836 13.4434C46.2393 13.7052 46.4615 14.1904 46.4615 14.7095C46.4615 15.1272 46.3196 15.4772 46.1346 15.746C46.1324 15.7494 46.1312 15.7513 46.1312 15.7513C46.0517 15.8748 45.9098 16.0659 45.8457 16.2357C45.7839 16.3989 45.9297 16.5679 46.088 16.4948C46.2329 16.4279 46.3851 16.2785 46.4872 16.1825C46.5409 16.1319 46.5646 16.1104 46.572 16.1044C46.5831 16.0923 46.594 16.0804 46.6047 16.0686C46.6307 16.0406 46.6566 16.0122 46.6828 15.9843C46.8906 15.7643 47.1029 15.5472 47.3227 15.3392C47.52 15.1521 47.722 14.9725 47.9312 14.8004C48.1226 14.6448 48.3185 14.4966 48.5218 14.3589C48.7101 14.2317 48.9134 14.109 49.1062 14.0072C49.2991 13.9055 49.4996 13.8126 49.6999 13.7348C49.9002 13.657 50.1005 13.5912 50.3143 13.5328C50.528 13.4745 50.7448 13.428 50.9631 13.3906C51.1933 13.3517 51.4266 13.3217 51.6598 13.3007C51.9125 13.2783 52.1652 13.2634 52.4179 13.2544C52.6929 13.2439 52.9681 13.2409 53.2446 13.2409C57.2573 13.241 58.6178 16.2986 58.543 21.7029C58.54 24.6333 58.5371 27.5667 58.5341 30.4971C58.5521 31.6016 58.6283 32.811 58.8645 33.9244C58.9438 34.297 59.0321 34.5051 59.2996 34.9301C59.5448 35.3192 59.8812 35.656 60.1473 35.8341C60.5629 36.1109 61.2013 36.3818 61.5063 36.5045C61.6124 36.5464 61.6841 36.6483 61.6886 36.7635L61.6917 36.8263C61.6976 36.9715 61.5989 37.0987 61.4569 37.1271C61.303 37.1586 60.9875 37.1362 60.6227 37.1377C60.1338 37.1332 59.7914 37.1316 59.3639 37.1526C57.4054 37.2513 55.4005 37.6256 53.9234 38.5355C53.5811 38.7465 53.5421 38.8333 53.3104 38.8962C53.113 38.9486 52.9755 38.9066 52.8424 38.8483C52.7572 38.8108 52.5718 38.6971 52.4672 38.4891C52.3461 38.2467 52.3402 37.6599 52.3402 37.2094V21.0683C52.3402 17.5094 51.4131 15.866 49.9465 15.866C48.7161 15.8661 47.87 16.529 47.2884 17.2908C46.671 18.1004 46.3794 19.1212 46.3794 20.1463L46.3614 25.0808C46.3615 25.0819 46.3616 25.0834 46.3616 25.0844V33.2799C46.3616 34.5984 46.3168 35.7718 46.997 37.0798C47.4514 37.9538 47.912 38.5062 48.7956 38.7532C48.9211 38.7891 49.0078 38.9058 49.0078 39.036V39.0494C49.0078 39.2125 48.8762 39.3427 48.7148 39.3427H43.4493C43.4092 39.3427 43.3692 39.3368 43.3291 39.3368H42.881C42.8751 39.3368 42.8616 39.3382 42.8616 39.3382H41.6059C41.3559 39.3382 41.1058 39.3556 40.8759 39.3191C40.7836 39.3065 40.6956 39.2835 40.6083 39.2436C40.544 39.2155 40.4823 39.1797 40.4238 39.1341C40.0683 38.8723 39.8462 38.3871 39.8462 37.8682C39.8462 37.4502 39.9883 37.0999 40.1735 36.8309C40.1754 36.828 40.1764 36.8264 40.1764 36.8264C40.256 36.7029 40.3979 36.5118 40.462 36.342C40.5237 36.1788 40.378 36.0098 40.2197 36.0829C40.0748 36.1498 39.9226 36.2992 39.8205 36.3952C39.7668 36.4457 39.7431 36.4672 39.7357 36.4733C39.7246 36.4854 39.7137 36.4973 39.703 36.5091C39.677 36.5371 39.6511 36.5655 39.6249 36.5934C39.4171 36.8134 39.2047 37.0305 38.985 37.2385C38.7877 37.4256 38.5857 37.6052 38.3765 37.7773C38.1851 37.9329 37.9892 38.0811 37.7859 38.2188C37.5976 38.346 37.3943 38.4687 37.2015 38.5705C37.0086 38.6722 36.8081 38.7651 36.6078 38.8429C36.4075 38.9207 36.2072 38.9865 35.9934 39.0449C35.7797 39.1032 35.5628 39.1497 35.3446 39.1871C35.1144 39.226 34.8811 39.256 34.6479 39.277C34.3952 39.2994 34.1425 39.3143 33.8898 39.3233C33.6148 39.3338 33.3396 39.3368 33.063 39.3368C29.0504 39.3367 27.6899 36.2791 27.7647 30.8748C27.7676 27.9444 27.7706 25.011 27.7736 22.0806C27.7556 20.9761 27.6794 19.7667 27.4432 18.6533C27.3639 18.2807 27.2756 18.0725 27.0081 17.6476C26.7629 17.2585 26.4265 16.9217 26.1604 16.7436C25.7448 16.4668 25.1064 16.1959 24.8014 16.0732C24.6953 16.0313 24.6236 15.9294 24.619 15.8142L24.616 15.7514C24.61 15.6062 24.7087 15.479 24.8508 15.4506C25.0047 15.4192 25.3202 15.4415 25.685 15.44C26.1739 15.4445 26.5163 15.4461 26.9438 15.4251C28.9023 15.3264 30.9072 14.9521 32.3843 14.0422C32.7266 13.8312 32.7656 13.7444 32.9973 13.6815C33.1946 13.6292 33.3322 13.6711 33.4653 13.7294C33.5505 13.7669 33.7359 13.8806 33.8405 14.0885C33.9616 14.331 33.9675 14.9178 33.9675 15.3683V31.5094C33.9675 35.0683 34.8946 36.7117 36.3612 36.7117C37.5916 36.7116 38.4377 36.0487 39.0193 35.2869C39.6367 34.4773 39.9283 33.4565 39.9283 32.4313L39.9463 27.4968C39.9462 27.4958 39.9461 27.4943 39.9461 27.4933V19.2978C39.9461 17.9793 39.9909 16.8059 39.3107 15.4979C38.8562 14.6239 38.3957 14.0715 37.5121 13.8245C37.3866 13.7886 37.2999 13.6719 37.2999 13.5417V13.5283C37.2999 13.3652 37.4314 13.235 37.5929 13.235H42.8584Z" fill="white"/>
<path d="M5.46267 1.69315C7.80841 1.69315 10.1556 1.68268 12.4999 1.70663C12.6823 1.70812 12.8303 1.85778 12.8303 2.04037V2.07628C12.8303 2.22744 12.7301 2.36214 12.5836 2.39806C12.2263 2.48487 11.9004 2.70189 11.6193 2.94883C11.0392 3.45768 10.5937 4.1162 10.3246 4.83908C10.0435 5.59487 10.0689 6.28033 10.0689 7.06157V28.188C10.0689 29.6727 10.0465 29.1863 10.063 30.6724C10.0914 33.4457 10.4412 36.3461 14.27 36.3461C16.2674 36.3461 18.3142 36.5871 19.7659 35.7714C20.0439 35.6158 20.3295 35.5035 20.9709 34.9842C22.0697 34.0922 23.0744 32.8934 23.943 30.4719C24.0402 30.1995 24.2296 30.2015 24.5077 30.218C24.7429 30.2319 24.9343 30.3656 24.9313 30.5452C24.864 34.182 24.9866 36.0199 26.4906 38.5477C26.6296 38.7812 26.4233 39.0745 26.1527 39.0745L22.2506 39.0521C19.7046 39.0521 16.8311 39.0685 14.2835 39.0521C11.3622 39.0341 8.75778 39.0521 5.82897 39.0521L5.82748 39.0446H0.618699C0.295774 39.0446 0.0909742 38.8093 0.0168068 38.4904C-0.00550557 38.3944 -0.00569877 38.1854 0.0168068 38.0786C0.0672623 37.8392 0.154121 37.6998 0.363052 37.5884C0.913232 37.3324 1.36324 36.8625 1.69066 36.3461C2.08087 35.7295 2.30213 35.0216 2.47406 34.3107C3.02275 32.0269 2.85979 29.8104 2.85979 27.4966V7.70512C2.85979 7.42375 2.84633 7.14089 2.85231 6.85653C2.8583 6.61558 2.86578 6.3746 2.84784 6.13514C2.83289 5.93609 2.79999 5.73854 2.75514 5.54548C2.49949 4.44247 2.02855 3.66272 1.56957 3.22571C1.16441 2.84107 0.874359 2.60161 0.244942 2.3397C0.119357 2.28582 0.0371359 2.16458 0.0371359 2.02988V2.0254C0.0371359 1.84132 0.186637 1.69315 0.370529 1.69315H5.46267Z" fill="white"/>
<path d="M86.87 0.353651C87.2797 0.0782792 87.4187 0.112709 87.4815 0.118695C87.6086 0.132167 87.7641 0.199503 87.8254 0.241408C87.8657 0.268348 87.9285 0.319232 87.9539 0.344674C87.9794 0.370116 88.0571 0.467388 88.0646 0.479371C88.0795 0.504813 88.1109 0.56619 88.1244 0.600612C88.1348 0.629045 88.1408 0.648499 88.1483 0.666457C88.1558 0.690403 88.1573 0.693404 88.1677 0.742793C88.1782 0.792174 88.1797 0.793682 88.1946 0.917895C88.2096 1.04211 88.2066 0.997223 88.2111 1.06607C88.229 1.32947 88.2365 1.4507 88.2365 1.69166V17.3479C88.2365 17.5589 88.4691 17.6126 88.6357 17.4856C88.6476 17.4706 88.6581 17.4557 88.6686 17.4407C88.7328 17.3494 88.7986 17.2566 88.8629 17.1653C88.9631 17.0261 89.0633 16.8869 89.1664 16.7507C89.2696 16.6146 89.3683 16.4829 89.4714 16.3512C89.5746 16.2195 89.6747 16.0937 89.7794 15.968C89.884 15.8423 89.9857 15.7226 90.0919 15.6028C90.198 15.4831 90.3012 15.3709 90.4103 15.2571C90.5194 15.1434 90.6241 15.0386 90.7347 14.9324C90.8454 14.8261 90.9545 14.7273 91.0681 14.6285C91.1817 14.5298 91.2939 14.4385 91.4105 14.3487C91.5271 14.2589 91.6422 14.175 91.7633 14.0927C91.8844 14.0104 92.004 13.9356 92.1266 13.8622C92.2492 13.7889 92.3748 13.7216 92.5034 13.6587C92.6319 13.5959 92.762 13.536 92.8936 13.4836C93.0251 13.4312 93.1627 13.3803 93.2987 13.3369C93.4348 13.2935 93.5783 13.2546 93.7204 13.2202C93.8624 13.1858 94.0119 13.1573 94.1599 13.1349C94.3079 13.1124 94.4649 13.0945 94.6174 13.0825C94.7699 13.0705 94.9358 13.0645 95.0973 13.0645C99.0741 13.0645 100.915 16.2943 100.915 21.4966V33.8468C100.915 34.8465 100.798 36.2145 101.188 36.9044C101.359 37.2082 101.469 37.322 101.707 37.5749C101.833 37.7096 102.057 37.9101 102.205 38.0194C102.445 38.1975 102.64 38.3307 102.894 38.4205C103.03 38.4684 103.118 38.6016 103.121 38.7452V38.7752C103.123 38.9398 102.991 39.0745 102.827 39.0745H102.16C101.732 39.0745 101.444 39.07 101.016 39.07H97.0558C96.1678 39.07 95.3574 39.0745 94.4365 39.0745H92.1326C91.9652 39.0745 91.8291 38.9398 91.8261 38.7722V38.7647C91.8246 38.6285 91.9158 38.5118 92.0474 38.4759C92.2702 38.416 92.4884 38.3471 92.7037 38.2618C93.0311 38.1331 93.3541 37.9745 93.6082 37.732C93.7054 37.6392 93.9252 37.3309 94.0014 37.2202C94.1913 36.9418 94.278 36.7832 94.3856 36.4644C94.5456 35.9929 94.5621 35.8343 94.5979 35.3389C94.6084 35.2012 94.595 34.9169 94.5979 34.7792C94.6129 34.1057 94.5979 33.3005 94.5979 32.627V21.9336C94.5979 18.3207 93.5544 16.5682 92.0623 16.5682C90.0007 16.5682 88.9093 18.2594 88.386 19.5135C88.2858 19.753 88.2335 20.0104 88.2335 20.2693V35.0845C88.2335 35.517 88.2784 35.951 88.4025 36.3671C88.4667 36.5826 88.6327 36.9089 88.7598 37.096C88.8868 37.283 89.0408 37.5075 89.1724 37.6273C89.594 38.0119 89.733 38.2244 90.4522 38.4549C90.6076 38.5043 90.7138 38.648 90.7183 38.8111V38.8156C90.7213 38.9518 90.6106 39.0655 90.4746 39.067C89.9259 39.073 89.6074 39.0715 89.1679 39.0715C88.6476 39.0715 88.1258 39.07 87.6056 39.07H84.158C83.0681 39.07 81.9588 39.0745 80.8689 39.0745C80.5011 39.0745 80.3007 39.07 79.9345 39.07C79.912 39.07 79.8896 39.0521 79.8761 39.0341C79.8492 39.0027 79.8238 38.9712 79.8059 38.9353C79.77 38.865 79.767 38.7842 79.767 38.7048C79.767 38.6659 79.767 38.627 79.7775 38.5911C79.7999 38.5058 79.8717 38.4414 79.9479 38.398L80.6768 37.9485C80.8963 37.7783 80.9913 37.6744 81.123 37.506C81.3129 37.2636 81.4774 37.0017 81.6119 36.7233C81.733 36.4749 81.8646 36.2429 81.9169 35.969C81.9782 35.6472 82.0185 35.4317 82.0185 35.1294V10.7508C82.0185 9.45168 82.1247 7.99097 81.9303 6.5991C81.8048 5.69814 81.7315 5.26261 81.4504 4.54723C81.274 4.09675 80.8136 3.4906 80.4233 3.20475C80.1363 2.99372 79.9509 2.92039 79.6743 2.79916C79.4067 2.68243 79.3499 2.65398 79.0613 2.53425C78.9761 2.49833 78.8565 2.35915 78.8789 2.15261C78.8894 2.05234 78.9881 1.95207 79.0883 1.93111C79.5069 1.84581 80.0391 1.93261 80.7836 1.91614C81.3413 1.90417 82.3549 1.7979 82.6255 1.76049C83.9771 1.57042 83.8037 1.6722 85.4004 1.1379C85.8519 0.986744 86.3527 0.70087 86.87 0.353651Z" fill="white"/>
<path fill-rule="evenodd" clip-rule="evenodd" d="M122.424 0.0840278C122.663 -0.0625977 122.92 0.0152781 123.046 0.0736423C123.107 0.100633 123.312 0.189016 123.437 0.46724C123.581 0.785995 123.556 1.10626 123.556 1.56268C123.556 2.39479 123.553 3.0579 123.553 3.92294C123.553 5.40908 123.599 7.09131 123.599 8.57594V29.9104C123.599 30.4701 123.58 31.232 123.708 31.9548C123.904 33.0623 125.003 33.8421 126.099 33.5308C126.562 33.4006 126.975 33.0758 127.338 32.772C127.736 32.4397 128.075 32.0595 128.443 31.7004C128.494 31.651 128.549 31.6061 128.607 31.5657C128.708 31.4969 128.826 31.4414 128.947 31.4519C129.044 31.4609 129.132 31.5119 129.214 31.5657C129.268 31.6017 129.322 31.639 129.365 31.6869C129.461 31.7887 129.507 31.9308 129.519 32.07C129.548 32.3768 129.419 32.5999 129.3 32.8722C129.171 33.1626 129.029 33.4485 128.877 33.7268C128.57 34.288 128.222 34.8239 127.854 35.3462C127.722 35.5318 127.589 35.7144 127.455 35.8969C126.949 36.5794 126.423 37.2379 125.72 37.7228C125.299 38.0147 124.864 38.29 124.4 38.51C124.167 38.6208 123.926 38.7166 123.68 38.7914C123.559 38.8273 123.484 38.8483 123.345 38.8887C123.239 38.9202 123.119 38.9456 123.005 38.965C122.79 39.0024 122.47 39.0354 122.261 39.0504C121.676 39.0908 121.189 39.0862 120.616 38.9919C120.044 38.8976 119.522 38.6298 119.033 38.326C118.896 38.2399 118.774 38.1046 118.668 37.9551C118.607 37.875 118.553 37.7871 118.506 37.6932C118.499 37.6804 118.492 37.6676 118.485 37.6549H118.488C118.41 37.4885 118.357 37.3046 118.335 37.1123C118.286 36.7007 118.384 36.3388 118.534 36.051C118.538 36.0435 118.54 36.039 118.54 36.039C118.605 35.907 118.723 35.7003 118.767 35.5242C118.809 35.3549 118.644 35.2042 118.496 35.2954C118.36 35.379 118.226 35.5452 118.136 35.6526C118.091 35.7058 118.07 35.7303 118.062 35.7387C118.052 35.7525 118.042 35.7661 118.033 35.7795C118.01 35.8105 117.988 35.8417 117.965 35.8725C117.785 36.1154 117.599 36.3561 117.405 36.5886C117.354 36.65 117.303 36.7107 117.251 36.771C116.853 37.2901 116.359 37.7883 115.826 38.1419C114.766 38.8453 113.482 38.995 112.202 38.995C107.032 38.995 103.121 34.3958 103.121 26.0192C103.121 18.3534 107.719 12.9925 112.69 12.9925C113.171 12.9925 113.654 13.0119 114.129 13.0867C114.534 13.1496 114.926 13.2529 115.309 13.4175C115.692 13.5821 116.047 13.8037 116.378 14.0566C116.502 14.1524 116.625 14.2542 116.743 14.3574C116.856 14.4562 116.952 14.5804 117.115 14.5819C117.19 14.5834 117.267 14.5535 117.312 14.4936C117.368 14.4218 117.374 14.3245 117.381 14.2377C117.395 14.0985 117.388 14.0057 117.388 13.895V8.6268C117.388 7.79768 117.333 7.14507 117.241 6.07201C117.154 5.05135 117.054 4.4901 116.154 3.438C115.672 2.87528 115.022 2.7136 114.333 2.39035L114.327 2.38742C114.216 2.33655 114.2 2.1854 114.2 2.11353C114.198 2.03422 114.232 1.82169 114.379 1.80968C114.824 1.77227 115.526 1.8037 116.064 1.78424C116.82 1.75731 117.161 1.75574 118.025 1.64349C118.987 1.51927 120.003 1.30534 120.926 0.928218C121.706 0.60944 121.856 0.43423 122.424 0.0840278ZM113.467 14.6284C110.931 14.6284 109.39 19.2814 109.39 26.5086C109.39 31.7109 110.335 36.6378 113.516 36.6378C114.869 36.6378 115.581 36.1169 116.318 35.1037C116.819 34.4168 117.224 33.1537 117.224 32.3021V19.4354C117.224 18.6153 117.087 18.0271 116.798 17.0304C116.408 15.685 114.98 14.6299 113.467 14.6299V14.6284Z" fill="white"/>
<path d="M64.5129 15.5353C67.5897 12.2398 73.0691 11.3822 76.7304 14.2303C78.8041 15.8422 79.8237 19.2156 78.369 21.5518C77.6006 22.7865 75.5419 23.1352 74.3249 22.4707C73.9825 22.2837 73.7643 21.9589 73.6746 21.5802C73.4593 20.6748 73.9541 19.8621 74.1919 19.015C74.6972 17.2101 74.89 14.7047 72.6938 14.0836C68.5779 12.9193 68.0113 19.8142 67.8768 22.4169C67.7063 25.7454 67.4865 32.4218 70.6635 34.5111C71.2242 34.8793 71.87 35.1083 72.5398 35.1487C73.2096 35.1891 73.8136 35.0589 74.4012 34.8165C74.9887 34.574 75.5733 34.1894 76.0622 33.7449C76.5511 33.3004 76.9966 32.7511 77.336 32.1629C77.6753 31.5747 77.9175 30.9566 78.0386 30.3011C78.0775 30.0916 78.1029 29.8776 78.1134 29.6651C78.1179 29.5588 78.1164 29.4685 78.1134 29.3637C78.1104 29.259 78.0909 29.1472 78.0909 29.0275C78.1014 28.9452 78.1388 28.8629 78.2061 28.8135C78.242 28.788 78.2774 28.769 78.3192 28.7585C78.7095 28.6522 78.9117 29.0559 79.0358 29.3567C79.1823 29.7144 79.278 30.108 79.3109 30.4942C79.4903 32.6224 78.8001 35.1123 77.2691 36.6344L77.2672 36.6364C74.2217 39.661 68.0576 39.5264 64.8537 36.81C59.4461 32.2243 59.8349 20.5461 64.5129 15.5353Z" fill="white"/>
</svg>
